<svg width="24.000000" height="24.000000" viewBox="0 0 24 24" fill="none" xmlns="http://www.w3.org/2000/svg" xmlns:xlink="http://www.w3.org/1999/xlink">
	<desc>
			Created with Pixso.
	</desc>
	<defs>
		<clipPath id="clip205_1">
			<rect id="Стоу меню" width="24.000000" height="24.000000" fill="white" fill-opacity="0"/>
		</clipPath>
	</defs>
	<g clip-path="url(#clip205_1)">
		<path id="path" d="M4.02 6.23L4 6.25C3.58 6.25 3.25 5.92 3.25 5.5C3.25 5.07 3.58 4.75 4 4.75L4.02 4.76L4.02 6.23ZM19.98 4.76L20 4.75C20.41 4.75 20.75 5.07 20.75 5.5C20.75 5.92 20.41 6.25 20 6.25L19.98 6.23L19.98 4.76Z" fill="#000000" fill-opacity="0" fill-rule="nonzero"/>
		<path id="path" d="M4 5.5L20 5.5" stroke="#FFFFFF" stroke-opacity="1.000000" stroke-width="1.500000" stroke-linejoin="round" stroke-linecap="round"/>
		<path id="path" d="M3.56 11.3L3.54 11.32C3.12 11.32 2.79 10.99 2.79 10.57C2.79 10.15 3.12 9.82 3.54 9.82L3.56 9.84L3.56 11.3ZM19.52 9.84L19.54 9.82C19.96 9.82 20.29 10.15 20.29 10.57C20.29 10.99 19.96 11.32 19.54 11.32L19.52 11.3L19.52 9.84Z" fill="#000000" fill-opacity="0" fill-rule="nonzero"/>
		<path id="path" d="M3.54 10.57L19.54 10.57" stroke="#FFFFFF" stroke-opacity="1.000000" stroke-width="1.500000" stroke-linejoin="round" stroke-linecap="round"/>
		<path id="path" d="M3.56 16.3L3.54 16.32C3.12 16.32 2.79 15.99 2.79 15.57C2.79 15.15 3.12 14.82 3.54 14.82L3.56 14.84L3.56 16.3ZM19.52 14.84L19.54 14.82C19.96 14.82 20.29 15.15 20.29 15.57C20.29 15.99 19.96 16.32 19.54 16.32L19.52 16.3L19.52 14.84Z" fill="#000000" fill-opacity="0" fill-rule="nonzero"/>
		<path id="path" d="M3.54 15.57L19.54 15.57" stroke="#FFFFFF" stroke-opacity="1.000000" stroke-width="1.500000" stroke-linejoin="round" stroke-linecap="round"/>
	</g>
</svg>
